<?xml version="1.0" encoding="UTF-8" standalone="no"?><svg xmlns="http://www.w3.org/2000/svg" xmlns:xlink="http://www.w3.org/1999/xlink" contentScriptType="application/ecmascript" contentStyleType="text/css" height="1683px" preserveAspectRatio="none" style="width:631px;height:1683px;background:#FFFFFF;" version="1.1" viewBox="0 0 631 1683" width="631px" zoomAndPan="magnify"><defs><filter height="300%" id="fk6krox6zmpyo" width="300%" x="-1" y="-1"><feGaussianBlur result="blurOut" stdDeviation="2.0"/><feColorMatrix in="blurOut" result="blurOut2" type="matrix" values="0 0 0 0 0 0 0 0 0 0 0 0 0 0 0 0 0 0 .4 0"/><feOffset dx="4.0" dy="4.0" in="blurOut2" result="blurOut3"/><feBlend in="SourceGraphic" in2="blurOut3" mode="normal"/></filter></defs><g><text fill="#000000" font-family="sans-serif" font-size="18" lengthAdjust="spacing" textLength="219" x="199.5" y="16.708">Movie Learning Process</text><ellipse cx="418" cy="36.9531" fill="#000000" filter="url(#fk6krox6zmpyo)" rx="10" ry="10" style="stroke:none;stroke-width:1.0;"/><rect fill="#FEFECE" filter="url(#fk6krox6zmpyo)" height="33.9688" rx="12.5" ry="12.5" style="stroke:#A80036;stroke-width:1.5;" width="93" x="371.5" y="87.9531"/><text fill="#000000" font-family="sans-serif" font-size="12" lengthAdjust="spacing" textLength="73" x="381.5" y="109.0918">Learn Movie</text><polygon fill="#FEFECE" filter="url(#fk6krox6zmpyo)" points="418,162.9531,430,174.9531,418,186.9531,406,174.9531,418,162.9531" style="stroke:#A80036;stroke-width:1.5;"/><rect fill="#FEFECE" filter="url(#fk6krox6zmpyo)" height="33.9688" rx="12.5" ry="12.5" style="stroke:#A80036;stroke-width:1.5;" width="70" x="329" y="240.9531"/><text fill="#000000" font-family="sans-serif" font-size="12" lengthAdjust="spacing" textLength="50" x="339" y="262.0918">Register</text><rect fill="#FEFECE" filter="url(#fk6krox6zmpyo)" height="33.9688" rx="12.5" ry="12.5" style="stroke:#A80036;stroke-width:1.5;" width="104" x="361" y="315.9531"/><text fill="#000000" font-family="sans-serif" font-size="12" lengthAdjust="spacing" textLength="84" x="371" y="337.0918">Authentication</text><polygon fill="#FEFECE" filter="url(#fk6krox6zmpyo)" points="381,390.9531,393,402.9531,381,414.9531,369,402.9531,381,390.9531" style="stroke:#A80036;stroke-width:1.5;"/><rect fill="#FEFECE" filter="url(#fk6krox6zmpyo)" height="33.9688" rx="12.5" ry="12.5" style="stroke:#A80036;stroke-width:1.5;" width="80" x="291" y="468.9531"/><text fill="#000000" font-family="sans-serif" font-size="12" lengthAdjust="spacing" textLength="60" x="301" y="490.0918">Logged In</text><rect fill="#000000" filter="url(#fk6krox6zmpyo)" height="8" style="stroke:none;stroke-width:1.0;" width="80" x="291" y="543.9531"/><rect fill="#FEFECE" filter="url(#fk6krox6zmpyo)" height="33.9688" rx="12.5" ry="12.5" style="stroke:#A80036;stroke-width:1.5;" width="50" x="396" y="468.9531"/><text fill="#000000" font-family="sans-serif" font-size="12" lengthAdjust="spacing" textLength="30" x="406" y="490.0918">Error</text><rect fill="#FEFECE" filter="url(#fk6krox6zmpyo)" height="33.9688" rx="12.5" ry="12.5" style="stroke:#A80036;stroke-width:1.5;" width="159" x="61.5" y="592.9531"/><text fill="#000000" font-family="sans-serif" font-size="12" lengthAdjust="spacing" textLength="139" x="71.5" y="614.0918">Search Movie by Name</text><rect fill="#000000" filter="url(#fk6krox6zmpyo)" height="8" style="stroke:none;stroke-width:1.0;" width="80" x="291" y="667.9531"/><rect fill="#FEFECE" filter="url(#fk6krox6zmpyo)" height="33.9688" rx="12.5" ry="12.5" style="stroke:#A80036;stroke-width:1.5;" width="180" x="241" y="592.9531"/><text fill="#000000" font-family="sans-serif" font-size="12" lengthAdjust="spacing" textLength="160" x="251" y="614.0918">Search Movie by Category</text><rect fill="#FEFECE" filter="url(#fk6krox6zmpyo)" height="33.9688" rx="12.5" ry="12.5" style="stroke:#A80036;stroke-width:1.5;" width="176" x="441" y="592.9531"/><text fill="#000000" font-family="sans-serif" font-size="12" lengthAdjust="spacing" textLength="156" x="451" y="614.0918">Search Movie by Difficulty</text><rect fill="#FEFECE" filter="url(#fk6krox6zmpyo)" height="33.9688" rx="12.5" ry="12.5" style="stroke:#A80036;stroke-width:1.5;" width="97" x="282.5" y="716.9531"/><text fill="#000000" font-family="sans-serif" font-size="12" lengthAdjust="spacing" textLength="77" x="292.5" y="738.0918">Movie Found</text><polygon fill="#FEFECE" filter="url(#fk6krox6zmpyo)" points="331,791.9531,343,803.9531,331,815.9531,319,803.9531,331,791.9531" style="stroke:#A80036;stroke-width:1.5;"/><rect fill="#FEFECE" filter="url(#fk6krox6zmpyo)" height="33.9688" rx="12.5" ry="12.5" style="stroke:#A80036;stroke-width:1.5;" width="120" x="156" y="869.9531"/><text fill="#000000" font-family="sans-serif" font-size="12" lengthAdjust="spacing" textLength="100" x="166" y="891.0918">Download Movie</text><polygon fill="#FEFECE" filter="url(#fk6krox6zmpyo)" points="216,944.9531,228,956.9531,216,968.9531,204,956.9531,216,944.9531" style="stroke:#A80036;stroke-width:1.5;"/><rect fill="#FEFECE" filter="url(#fk6krox6zmpyo)" height="33.9688" rx="12.5" ry="12.5" style="stroke:#A80036;stroke-width:1.5;" width="135" x="230.5" y="1022.9531"/><text fill="#000000" font-family="sans-serif" font-size="12" lengthAdjust="spacing" textLength="115" x="240.5" y="1044.0918">Movie downloaded</text><rect fill="#FEFECE" filter="url(#fk6krox6zmpyo)" height="33.9688" rx="12.5" ry="12.5" style="stroke:#A80036;stroke-width:1.5;" width="246" x="242" y="1097.9531"/><text fill="#000000" font-family="sans-serif" font-size="12" lengthAdjust="spacing" textLength="226" x="252" y="1119.0918">Start Learning Vocabulary Block of 10</text><rect fill="#FEFECE" filter="url(#fk6krox6zmpyo)" height="33.9688" rx="12.5" ry="12.5" style="stroke:#A80036;stroke-width:1.5;" width="131" x="79.5" y="1022.9531"/><text fill="#000000" font-family="sans-serif" font-size="12" lengthAdjust="spacing" textLength="111" x="89.5" y="1044.0918">Movie uncomplete</text><rect fill="#FEFECE" filter="url(#fk6krox6zmpyo)" height="33.9688" rx="12.5" ry="12.5" style="stroke:#A80036;stroke-width:1.5;" width="53" x="211.5" y="1172.9531"/><text fill="#000000" font-family="sans-serif" font-size="12" lengthAdjust="spacing" textLength="33" x="221.5" y="1194.0918">Learn</text><polygon fill="#FEFECE" filter="url(#fk6krox6zmpyo)" points="238,1247.9531,250,1259.9531,238,1271.9531,226,1259.9531,238,1247.9531" style="stroke:#A80036;stroke-width:1.5;"/><rect fill="#FEFECE" filter="url(#fk6krox6zmpyo)" height="33.9688" rx="12.5" ry="12.5" style="stroke:#A80036;stroke-width:1.5;" width="121" x="148.5" y="1325.9531"/><text fill="#000000" font-family="sans-serif" font-size="12" lengthAdjust="spacing" textLength="101" x="158.5" y="1347.0918">User Vocab Test</text><polygon fill="#FEFECE" filter="url(#fk6krox6zmpyo)" points="209,1418.9531,221,1430.9531,209,1442.9531,197,1430.9531,209,1418.9531" style="stroke:#A80036;stroke-width:1.5;"/><rect fill="#FEFECE" filter="url(#fk6krox6zmpyo)" height="33.9688" rx="12.5" ry="12.5" style="stroke:#A80036;stroke-width:1.5;" width="108" x="37" y="1501.9531"/><text fill="#000000" font-family="sans-serif" font-size="12" lengthAdjust="spacing" textLength="88" x="47" y="1523.0918">Vocab learned</text><rect fill="#FEFECE" filter="url(#fk6krox6zmpyo)" height="33.9688" rx="12.5" ry="12.5" style="stroke:#A80036;stroke-width:1.5;" width="90" x="46" y="1576.9531"/><text fill="#000000" font-family="sans-serif" font-size="12" lengthAdjust="spacing" textLength="70" x="56" y="1598.0918">Save Result</text><rect fill="#FEFECE" filter="url(#fk6krox6zmpyo)" height="33.9688" rx="12.5" ry="12.5" style="stroke:#A80036;stroke-width:1.5;" width="100" x="165" y="1501.9531"/><text fill="#000000" font-family="sans-serif" font-size="12" lengthAdjust="spacing" textLength="80" x="175" y="1523.0918">Vocab wrong</text><polygon fill="#FEFECE" filter="url(#fk6krox6zmpyo)" points="302,1330.9531,314,1342.9531,302,1354.9531,290,1342.9531,302,1330.9531" style="stroke:#A80036;stroke-width:1.5;"/><rect fill="#FEFECE" filter="url(#fk6krox6zmpyo)" height="33.9688" rx="12.5" ry="12.5" style="stroke:#A80036;stroke-width:1.5;" width="127" x="327.5" y="1413.9531"/><text fill="#000000" font-family="sans-serif" font-size="12" lengthAdjust="spacing" textLength="107" x="337.5" y="1435.0918">Continue Learning</text><rect fill="#FEFECE" filter="url(#fk6krox6zmpyo)" height="33.9688" rx="12.5" ry="12.5" style="stroke:#A80036;stroke-width:1.5;" width="97" x="247.5" y="1576.9531"/><text fill="#000000" font-family="sans-serif" font-size="12" lengthAdjust="spacing" textLength="77" x="257.5" y="1598.0918">End Learning</text><ellipse cx="296" cy="1661.9531" filter="url(#fk6krox6zmpyo)" rx="10" ry="10" style="stroke:#000000;stroke-width:1.0;fill:none;"/><ellipse cx="296.5" cy="1662.4531" fill="#000000" rx="6" ry="6" style="stroke:none;stroke-width:1.0;"/><!--MD5=[760cbf3a2e90195a806104c44d8d03c0]
link start to Learn Movie--><path d="M418,47.1331 C418,56.2231 418,70.4831 418,82.4431 " fill="none" id="start-to-Learn Movie" style="stroke:#A80036;stroke-width:1.0;"/><polygon fill="#A80036" points="418,87.7431,422,78.7431,418,82.7431,414,78.7431,418,87.7431" style="stroke:#A80036;stroke-width:1.0;"/><!--MD5=[e475ef64e50e258b8edd305f4c95c8e2]
link Learn Movie to #137481--><path d="M418,122.0731 C418,132.8731 418,147.0331 418,157.8331 " fill="none" id="Learn Movie-to-#137481" style="stroke:#A80036;stroke-width:1.0;"/><polygon fill="#A80036" points="418,162.8431,422,153.8431,418,157.8431,414,153.8431,418,162.8431" style="stroke:#A80036;stroke-width:1.0;"/><text fill="#000000" font-family="sans-serif" font-size="11" lengthAdjust="spacing" textLength="60" x="343.375" y="152.4211">new User?</text><!--MD5=[2131a46bcd527d9048fc63573399cf4b]
link #137481 to Register--><path d="M413.581,182.5831 C405.825,194.2131 389.466,218.7531 377.657,236.4631 " fill="none" id="#137481-to-Register" style="stroke:#A80036;stroke-width:1.0;"/><polygon fill="#A80036" points="374.761,240.8131,383.0798,235.5408,377.5332,236.652,376.422,231.1053,374.761,240.8131" style="stroke:#A80036;stroke-width:1.0;"/><text fill="#000000" font-family="sans-serif" font-size="11" lengthAdjust="spacing" textLength="23" x="397" y="218.1636">true</text><!--MD5=[e2406c1c67aa6cb9f2ca27c7afb8941f]
link Register to Authentication--><path d="M374.875,275.1531 C382.043,285.8331 391.494,299.9131 399.192,311.3831 " fill="none" id="Register-to-Authentication" style="stroke:#A80036;stroke-width:1.0;"/><polygon fill="#A80036" points="402.156,315.7931,400.4627,306.0909,399.37,311.6412,393.8197,310.5486,402.156,315.7931" style="stroke:#A80036;stroke-width:1.0;"/><!--MD5=[daac66e8900ed8294e1f4d42c50694ae]
link #137481 to Authentication--><path d="M420.189,184.8431 C421.591,191.0031 423.278,199.4231 424,206.9531 C427.494,243.3931 421.661,285.8531 417.24,310.7331 " fill="none" id="#137481-to-Authentication" style="stroke:#A80036;stroke-width:1.0;"/><polygon fill="#A80036" points="416.322,315.7631,421.8766,307.6301,417.222,310.8448,414.0073,306.1901,416.322,315.7631" style="stroke:#A80036;stroke-width:1.0;"/><text fill="#000000" font-family="sans-serif" font-size="11" lengthAdjust="spacing" textLength="28" x="426" y="262.1636">false</text><!--MD5=[9af67be7c87f8b1ad9d698a4956e28d7]
link Authentication to #137489--><path d="M405.416,350.0731 C399.711,362.1931 392.009,378.5631 386.792,389.6431 " fill="none" id="Authentication-to-#137489" style="stroke:#A80036;stroke-width:1.0;"/><polygon fill="#A80036" points="384.586,394.3331,392.0369,387.8923,386.7146,389.8088,384.798,384.4865,384.586,394.3331" style="stroke:#A80036;stroke-width:1.0;"/><text fill="#000000" font-family="sans-serif" font-size="11" lengthAdjust="spacing" textLength="150" x="400.7944" y="389.6112">authentication successful?</text><!--MD5=[640c37608c4e0ef17c1c50e497efb7ec]
link #137489 to Logged In--><path d="M374.517,408.4931 C367.128,413.9731 355.151,423.8531 348,434.9531 C342.387,443.6731 338.416,454.4331 335.732,463.7431 " fill="none" id="#137489-to-Logged In" style="stroke:#A80036;stroke-width:1.0;"/><polygon fill="#A80036" points="334.37,468.7431,340.595,461.111,335.6843,463.9189,332.8763,459.0082,334.37,468.7431" style="stroke:#A80036;stroke-width:1.0;"/><text fill="#000000" font-family="sans-serif" font-size="11" lengthAdjust="spacing" textLength="23" x="349" y="446.1636">true</text><!--MD5=[dc96fc73cca4592cf33d2e0d8a136bd0]
link Logged In to SEARCH_MOVIE1--><path d="M331,503.0331 C331,514.4231 331,529.2531 331,538.4331 " fill="none" id="Logged In-to-SEARCH_MOVIE1" style="stroke:#A80036;stroke-width:1.0;"/><polygon fill="#A80036" points="331,543.5631,335,534.5631,331,538.5631,327,534.5631,331,543.5631" style="stroke:#A80036;stroke-width:1.0;"/><!--MD5=[afcfc763185bdacff50fe0d2eb282e35]
link #137489 to Error--><path d="M378.917,413.0231 C377.219,422.4431 375.851,437.3931 381,448.9531 C383.726,455.0731 388.064,460.5931 392.897,465.3631 " fill="none" id="#137489-to-Error" style="stroke:#A80036;stroke-width:1.0;"/><polygon fill="#A80036" points="396.671,468.8631,392.8031,459.8056,393.0091,465.4587,387.356,465.6647,396.671,468.8631" style="stroke:#A80036;stroke-width:1.0;"/><text fill="#000000" font-family="sans-serif" font-size="11" lengthAdjust="spacing" textLength="28" x="382" y="446.1636">false</text><!--MD5=[f8cf34634577d2866c4c1a735916e60e]
link Error to Authentication--><path d="M420.15,468.9131 C418.699,441.5131 415.743,385.7231 414.123,355.1531 " fill="none" id="Error-to-Authentication" style="stroke:#A80036;stroke-width:1.0;"/><polygon fill="#A80036" points="413.856,350.1131,410.3504,359.317,414.1274,355.1058,418.3387,358.8827,413.856,350.1131" style="stroke:#A80036;stroke-width:1.0;"/><!--MD5=[9779e54efddb1c569bcdc4594b9be221]
link SEARCH_MOVIE1 to Search Movie by Name--><path d="M321.317,552.0131 C298.625,559.1731 240.597,577.5031 196.445,591.4431 " fill="none" id="SEARCH_MOVIE1-to-Search Movie by Name" style="stroke:#A80036;stroke-width:1.0;"/><polygon fill="#A80036" points="191.677,592.9531,201.4635,594.0592,196.4452,591.4484,199.056,586.4301,191.677,592.9531" style="stroke:#A80036;stroke-width:1.0;"/><!--MD5=[99845efbd7bd2220fe24740cd6646150]
link Search Movie by Name to SEARCH_MOVIE2--><path d="M191.917,627.0331 C233.756,640.2431 290.253,658.0831 316.492,666.3731 " fill="none" id="Search Movie by Name-to-SEARCH_MOVIE2" style="stroke:#A80036;stroke-width:1.0;"/><polygon fill="#A80036" points="321.323,667.8931,313.944,661.3701,316.5548,666.3884,311.5365,668.9992,321.323,667.8931" style="stroke:#A80036;stroke-width:1.0;"/><!--MD5=[7b3d815238dcbadd5e2ea41d719b2ba8]
link SEARCH_MOVIE1 to Search Movie by Category--><path d="M331,552.1831 C331,558.8431 331,574.6031 331,587.8331 " fill="none" id="SEARCH_MOVIE1-to-Search Movie by Category" style="stroke:#A80036;stroke-width:1.0;"/><polygon fill="#A80036" points="331,592.9431,335,583.9431,331,587.9431,327,583.9431,331,592.9431" style="stroke:#A80036;stroke-width:1.0;"/><!--MD5=[725a86e7c621196061d8afa447e3e010]
link Search Movie by Category to SEARCH_MOVIE2--><path d="M331,627.0331 C331,638.4231 331,653.2531 331,662.4331 " fill="none" id="Search Movie by Category-to-SEARCH_MOVIE2" style="stroke:#A80036;stroke-width:1.0;"/><polygon fill="#A80036" points="331,667.5631,335,658.5631,331,662.5631,327,658.5631,331,667.5631" style="stroke:#A80036;stroke-width:1.0;"/><!--MD5=[20eaec99ed9b93083d177ba5de5fb1e7]
link SEARCH_MOVIE1 to Search Movie by Difficulty--><path d="M341.091,552.0131 C364.738,559.1731 425.21,577.5031 471.22,591.4431 " fill="none" id="SEARCH_MOVIE1-to-Search Movie by Difficulty" style="stroke:#A80036;stroke-width:1.0;"/><polygon fill="#A80036" points="476.19,592.9531,468.7365,586.5153,471.4048,591.5033,466.4168,594.1716,476.19,592.9531" style="stroke:#A80036;stroke-width:1.0;"/><!--MD5=[1922d14f4eaf60fb4704244418b7eeec]
link Search Movie by Difficulty to SEARCH_MOVIE2--><path d="M476.2,626.9531 C432.595,640.1631 373.577,658.0531 346.161,666.3631 " fill="none" id="Search Movie by Difficulty-to-SEARCH_MOVIE2" style="stroke:#A80036;stroke-width:1.0;"/><polygon fill="#A80036" points="341.113,667.8931,350.8862,669.1116,345.8982,666.4433,348.5665,661.4553,341.113,667.8931" style="stroke:#A80036;stroke-width:1.0;"/><!--MD5=[763ea4d370217571c42f7f678ecb8ae8]
link SEARCH_MOVIE2 to Movie Found--><path d="M331,676.1791 C331,682.8401 331,698.6011 331,711.8311 " fill="none" id="SEARCH_MOVIE2-to-Movie Found" style="stroke:#A80036;stroke-width:1.0;"/><polygon fill="#A80036" points="331,716.9381,335,707.9381,331,711.9381,327,707.9381,331,716.9381" style="stroke:#A80036;stroke-width:1.0;"/><!--MD5=[a05d71a0560df49812bccd334a7c6c9f]
link Movie Found to #137511--><path d="M331,751.0681 C331,761.8691 331,776.0351 331,786.8361 " fill="none" id="Movie Found-to-#137511" style="stroke:#A80036;stroke-width:1.0;"/><polygon fill="#A80036" points="331,791.8381,335,782.8381,331,786.8381,327,782.8381,331,791.8381" style="stroke:#A80036;stroke-width:1.0;"/><text fill="#000000" font-family="sans-serif" font-size="11" lengthAdjust="spacing" textLength="92" x="218.875" y="782.2993">offline learning?</text><!--MD5=[27c67ab0b2120b34fc8ecfd46b765e7f]
link #137511 to Download Movie--><path d="M324.488,809.5401 C309.153,820.3411 270.045,847.8861 243.227,866.7751 " fill="none" id="#137511-to-Download Movie" style="stroke:#A80036;stroke-width:1.0;"/><polygon fill="#A80036" points="239.034,869.7291,248.695,867.8148,243.1212,866.8491,244.0869,861.2753,239.034,869.7291" style="stroke:#A80036;stroke-width:1.0;"/><text fill="#000000" font-family="sans-serif" font-size="11" lengthAdjust="spacing" textLength="23" x="285" y="847.1636">true</text><!--MD5=[e7cd51cae1a7a3cb0eba0db88e4528c2]
link Download Movie to #137516--><path d="M216,904.0681 C216,914.8691 216,929.0351 216,939.8361 " fill="none" id="Download Movie-to-#137516" style="stroke:#A80036;stroke-width:1.0;"/><polygon fill="#A80036" points="216,944.8381,220,935.8381,216,939.8381,212,935.8381,216,944.8381" style="stroke:#A80036;stroke-width:1.0;"/><text fill="#000000" font-family="sans-serif" font-size="11" lengthAdjust="spacing" textLength="123" x="72.6281" y="937.1813">download successful?</text><!--MD5=[b6823a36a1089be10316e597fcd5b491]
link #137516 to Movie downloaded--><path d="M221.636,963.5201 C233.102,974.8461 259.625,1001.0461 278.176,1019.3711 " fill="none" id="#137516-to-Movie downloaded" style="stroke:#A80036;stroke-width:1.0;"/><polygon fill="#A80036" points="281.773,1022.9241,278.18,1013.7541,278.2154,1019.4108,272.5587,1019.4462,281.773,1022.9241" style="stroke:#A80036;stroke-width:1.0;"/><text fill="#000000" font-family="sans-serif" font-size="11" lengthAdjust="spacing" textLength="23" x="261" y="1000.1636">true</text><!--MD5=[93fbe6841695a10e3dcf0c4f8b7d4b0d]
link Movie downloaded to Start Learning Vocabulary Block of 10--><path d="M312.869,1057.1541 C322.845,1068.0231 336.052,1082.4121 346.676,1093.9881 " fill="none" id="Movie downloaded-to-Start Learning Vocabulary Block of 10" style="stroke:#A80036;stroke-width:1.0;"/><polygon fill="#A80036" points="350.172,1097.7971,347.0316,1088.4624,346.7904,1094.1141,341.1387,1093.8729,350.172,1097.7971" style="stroke:#A80036;stroke-width:1.0;"/><!--MD5=[611ee2eced6ca915accd700461037fde]
link #137516 to Movie uncomplete--><path d="M210.663,964.0411 C200.589,975.5341 178.366,1000.8881 162.568,1018.9111 " fill="none" id="#137516-to-Movie uncomplete" style="stroke:#A80036;stroke-width:1.0;"/><polygon fill="#A80036" points="159.102,1022.8651,168.0424,1018.7336,162.3978,1019.1051,162.0263,1013.4604,159.102,1022.8651" style="stroke:#A80036;stroke-width:1.0;"/><text fill="#000000" font-family="sans-serif" font-size="11" lengthAdjust="spacing" textLength="28" x="188" y="1000.1636">false</text><!--MD5=[06f83398d61f403663b876420e9261a6]
link Movie uncomplete to Download Movie--><path d="M152.544,1022.9101 C165.477,995.4031 191.873,939.2641 206.209,908.7771 " fill="none" id="Movie uncomplete-to-Download Movie" style="stroke:#A80036;stroke-width:1.0;"/><polygon fill="#A80036" points="208.402,904.1131,200.9536,910.5568,206.2751,908.6382,208.1937,913.9598,208.402,904.1131" style="stroke:#A80036;stroke-width:1.0;"/><!--MD5=[80415b78be63590a250fbdaba2d26a7e]
link #137511 to Start Learning Vocabulary Block of 10--><path d="M338.063,809.0411 C355.089,819.4841 397,848.9481 397,885.9531 C397,885.9531 397,885.9531 397,1040.9531 C397,1059.7261 388.013,1079.1031 379.565,1093.1711 " fill="none" id="#137511-to-Start Learning Vocabulary Block of 10" style="stroke:#A80036;stroke-width:1.0;"/><polygon fill="#A80036" points="376.734,1097.7301,384.8798,1092.1942,379.3715,1093.4824,378.0833,1087.9741,376.734,1097.7301" style="stroke:#A80036;stroke-width:1.0;"/><text fill="#000000" font-family="sans-serif" font-size="11" lengthAdjust="spacing" textLength="28" x="398" y="961.1636">false</text><!--MD5=[1f5cace7dd1a8a498190d0180c909ab4]
link Start Learning Vocabulary Block of 10 to Learn--><path d="M337.129,1131.9731 C316.952,1143.5711 289.677,1159.2491 268.845,1171.2231 " fill="none" id="Start Learning Vocabulary Block of 10-to-Learn" style="stroke:#A80036;stroke-width:1.0;"/><polygon fill="#A80036" points="264.503,1173.7191,274.2991,1172.7008,268.8376,1171.2269,270.3115,1165.7654,264.503,1173.7191" style="stroke:#A80036;stroke-width:1.0;"/><!--MD5=[1482f7959dc8a1fa5dc7d554b29129aa]
link Learn to #137529--><path d="M238,1207.0681 C238,1217.8691 238,1232.0351 238,1242.8361 " fill="none" id="Learn-to-#137529" style="stroke:#A80036;stroke-width:1.0;"/><polygon fill="#A80036" points="238,1247.8381,242,1238.8381,238,1242.8381,234,1238.8381,238,1247.8381" style="stroke:#A80036;stroke-width:1.0;"/><text fill="#000000" font-family="sans-serif" font-size="11" lengthAdjust="spacing" textLength="167" x="50.6469" y="1241.7311">vocabs in learning Block left?</text><!--MD5=[85b31fa6226a09bdeae1c26e65813a70]
link #137529 to User Vocab Test--><path d="M235.006,1269.3161 C230.704,1281.3311 222.632,1303.8781 216.617,1320.6781 " fill="none" id="#137529-to-User Vocab Test" style="stroke:#A80036;stroke-width:1.0;"/><polygon fill="#A80036" points="214.823,1325.6891,221.6232,1318.5647,216.5088,1320.9819,214.0916,1315.8675,214.823,1325.6891" style="stroke:#A80036;stroke-width:1.0;"/><text fill="#000000" font-family="sans-serif" font-size="11" lengthAdjust="spacing" textLength="23" x="228" y="1303.1636">true</text><!--MD5=[0a47f5de5c1324760c9c0485b62ff745]
link User Vocab Test to #137534--><path d="M209,1360.1291 C209,1375.3831 209,1398.1351 209,1413.4841 " fill="none" id="User Vocab Test-to-#137534" style="stroke:#A80036;stroke-width:1.0;"/><polygon fill="#A80036" points="209,1418.7761,213,1409.7761,209,1413.7761,205,1409.7761,209,1418.7761" style="stroke:#A80036;stroke-width:1.0;"/><text fill="#000000" font-family="sans-serif" font-size="11" lengthAdjust="spacing" textLength="83" x="105.7688" y="1408.3214">vocab correct?</text><!--MD5=[c7d79507b4614fda5de6a22ae0ebf08d]
link #137534 to Vocab learned--><path d="M202.318,1436.8231 C186.305,1448.4931 145.031,1478.5741 117.493,1498.6451 " fill="none" id="#137534-to-Vocab learned" style="stroke:#A80036;stroke-width:1.0;"/><polygon fill="#A80036" points="113.197,1501.7751,122.8261,1499.7064,117.2376,1498.83,118.114,1493.2415,113.197,1501.7751" style="stroke:#A80036;stroke-width:1.0;"/><text fill="#000000" font-family="sans-serif" font-size="11" lengthAdjust="spacing" textLength="23" x="159" y="1479.1636">true</text><!--MD5=[aa1bebf85b8ce068a05f9589333924da]
link Vocab learned to Save Result--><path d="M91,1536.1541 C91,1546.6451 91,1560.4161 91,1571.7711 " fill="none" id="Vocab learned-to-Save Result" style="stroke:#A80036;stroke-width:1.0;"/><polygon fill="#A80036" points="91,1576.7973,95,1567.7973,91,1571.7973,87,1567.7973,91,1576.7973" style="stroke:#A80036;stroke-width:1.0;"/><!--MD5=[57a87e73384eae8b62872cabd8af870c]
link Save Result to Learn--><path d="M51.4861,1576.7773 C29.2889,1564.7981 6,1546.0191 6,1519.9531 C6,1258.9531 6,1258.9531 6,1258.9531 C6,1217.7201 142.656,1199.7241 206.205,1193.5851 " fill="none" id="Save Result-to-Learn" style="stroke:#A80036;stroke-width:1.0;"/><polygon fill="#A80036" points="211.387,1193.0951,202.05,1189.9614,206.4093,1193.5665,202.8042,1197.9257,211.387,1193.0951" style="stroke:#A80036;stroke-width:1.0;"/><!--MD5=[8cf7f831600bd5792e0f6de4090c214d]
link #137534 to Vocab wrong--><path d="M209.736,1442.4981 C210.672,1455.9121 212.31,1479.3991 213.511,1496.6161 " fill="none" id="#137534-to-Vocab wrong" style="stroke:#A80036;stroke-width:1.0;"/><polygon fill="#A80036" points="213.869,1501.7391,217.2318,1492.4821,213.5204,1496.7513,209.2512,1493.0399,213.869,1501.7391" style="stroke:#A80036;stroke-width:1.0;"/><text fill="#000000" font-family="sans-serif" font-size="11" lengthAdjust="spacing" textLength="28" x="214" y="1479.1636">false</text><!--MD5=[3cef561f720d6a6fadff2fb584bff9d5]
link Vocab wrong to Save Result--><path d="M187.788,1535.9731 C168.699,1547.2111 143.106,1562.2781 123.032,1574.0955 " fill="none" id="Vocab wrong-to-Save Result" style="stroke:#A80036;stroke-width:1.0;"/><polygon fill="#A80036" points="118.577,1576.718,128.362,1575.5983,122.8856,1574.1811,124.3028,1568.7046,118.577,1576.718" style="stroke:#A80036;stroke-width:1.0;"/><!--MD5=[d4687e895ee0ce99fa12d6cb440a510e]
link #137529 to #137545--><path d="M243.022,1267.3091 C253.997,1281.1991 280.212,1314.3781 293.689,1331.4341 " fill="none" id="#137529-to-#137545" style="stroke:#A80036;stroke-width:1.0;"/><polygon fill="#A80036" points="296.824,1335.4021,294.3822,1325.8608,293.7239,1331.4792,288.1055,1330.8209,296.824,1335.4021" style="stroke:#A80036;stroke-width:1.0;"/><text fill="#000000" font-family="sans-serif" font-size="11" lengthAdjust="spacing" textLength="28" x="273" y="1303.1636">false</text><text fill="#000000" font-family="sans-serif" font-size="11" lengthAdjust="spacing" textLength="116" x="322.5757" y="1327.2026">want to learn again?</text><!--MD5=[c3b0934e9701f4095152dd37d222d241]
link #137545 to Continue Learning--><path d="M306.924,1350.4641 C314.554,1360.3621 329.929,1379.5631 345,1393.9531 C351.074,1399.7521 358.032,1405.5671 364.666,1410.7801 " fill="none" id="#137545-to-Continue Learning" style="stroke:#A80036;stroke-width:1.0;"/><polygon fill="#A80036" points="368.744,1413.9431,364.0847,1405.2661,364.7934,1410.8784,359.1811,1411.5871,368.744,1413.9431" style="stroke:#A80036;stroke-width:1.0;"/><text fill="#000000" font-family="sans-serif" font-size="11" lengthAdjust="spacing" textLength="23" x="346" y="1391.1636">true</text><!--MD5=[5386eb17a72f164a689848171eae1ab3]
link Continue Learning to Start Learning Vocabulary Block of 10--><path d="M389.5,1413.8021 C388.027,1396.5301 386,1368.3311 386,1343.9531 C386,1188.9531 386,1188.9531 386,1188.9531 C386,1170.8251 379.945,1151.1181 374.338,1136.7531 " fill="none" id="Continue Learning-to-Start Learning Vocabulary Block of 10" style="stroke:#A80036;stroke-width:1.0;"/><polygon fill="#A80036" points="372.463,1132.0971,372.1156,1141.9399,374.3313,1136.735,379.5362,1138.9506,372.463,1132.0971" style="stroke:#A80036;stroke-width:1.0;"/><!--MD5=[2dc2441a6d15a72da073c7fe541dbecc]
link #137545 to End Learning--><path d="M301.734,1354.9741 C300.813,1393.2051 297.744,1520.5621 296.515,1571.5641 " fill="none" id="#137545-to-End Learning" style="stroke:#A80036;stroke-width:1.0;"/><polygon fill="#A80036" points="296.389,1576.8275,300.6038,1567.9261,296.509,1571.829,292.6062,1567.7341,296.389,1576.8275" style="stroke:#A80036;stroke-width:1.0;"/><text fill="#000000" font-family="sans-serif" font-size="11" lengthAdjust="spacing" textLength="28" x="300" y="1479.1636">false</text><!--MD5=[15d8ecd6b415bb912037e7691bb9d073]
link End Learning to end--><path d="M296,1611.2677 C296,1622.1899 296,1636.4214 296,1646.8524 " fill="none" id="End Learning-to-end" style="stroke:#A80036;stroke-width:1.0;"/><polygon fill="#A80036" points="296,1651.9231,300,1642.9231,296,1646.9231,292,1642.9231,296,1651.9231" style="stroke:#A80036;stroke-width:1.0;"/><!--MD5=[38ca3d82d700062c26c4948f50471cb2]
@startuml
title Movie Learning Process



(*) - -> "Learn Movie"
if "new User?" then
    - ->[true] "Register"
    - ->"Authentication"

else
    - ->[false] "Authentication"
endif

if "authentication successful?" then
    - ->[true] "Logged In"
    - ->  ===SEARCH_MOVIE1===
else
  - ->[false] "Error"
  - -> "Authentication"
endif


===SEARCH_MOVIE1===  - -> "Search Movie by Name"
- -> ===SEARCH_MOVIE2===

===SEARCH_MOVIE1===  - -> "Search Movie by Category"
- -> ===SEARCH_MOVIE2===

===SEARCH_MOVIE1===  - -> "Search Movie by Difficulty"
- -> ===SEARCH_MOVIE2===


- -> "Movie Found"

if "offline learning?" then
    - ->[true] "Download Movie"
    if "download successful?" then
        - ->[true] "Movie downloaded"
        - ->"Start Learning Vocabulary Block of 10"
    else
        - ->[false] "Movie uncomplete"
        - -> "Download Movie"
    endif

else
    - ->[false] "Start Learning Vocabulary Block of 10"
endif


- -> "Learn"

if "vocabs in learning Block left?" then
    - ->[true] "User Vocab Test"
    if "vocab correct?" then
        - ->[true] "Vocab learned"
        - -> "Save Result"
        - ->"Learn"
    else
        - ->[false] "Vocab wrong"
        - -> "Save Result"
    endif

else
    - ->[false] if "want to learn again?" then
        - ->[true] "Continue Learning"
        - ->"Start Learning Vocabulary Block of 10"
    else
        - - - ->[false] "End Learning"
    endif
endif


- ->(*)
@enduml

PlantUML version 1.2021.14(Fri Nov 12 16:46:50 UTC 2021)
(GPL source distribution)
Java Runtime: Java(TM) SE Runtime Environment
JVM: Java HotSpot(TM) 64-Bit Server VM
Default Encoding: UTF-8
Language: en
Country: US
--></g></svg>